<?xml version="1.0" standalone="no"?><!DOCTYPE svg PUBLIC "-//W3C//DTD SVG 1.1//EN" "http://www.w3.org/Graphics/SVG/1.1/DTD/svg11.dtd"><svg t="1723027885870" class="icon" viewBox="0 0 1026 1024" version="1.1" xmlns="http://www.w3.org/2000/svg" p-id="4250" xmlns:xlink="http://www.w3.org/1999/xlink" width="200.390625" height="200"><path d="M968.17199 417.657726l-94.507347 94.379549c-58.915331 58.915331-146.393735 70.736737-217.513869 36.870006L873.664643 331.329513a63.835592 63.835592 0 0 0 0-90.353881L783.374661 150.493952a63.835592 63.835592 0 0 0-90.353881 0L475.443012 368.13562c-33.86673-71.184033-22.045325-158.662437 36.870007-217.641668l94.315649-94.379549c74.890204-74.826304 196.299238-74.826304 271.061643 0l90.481679 90.353881c74.762405 74.890204 74.762405 196.299238 0 271.189442zM331.605257 692.681137a63.835592 63.835592 0 0 1 0-90.353881l271.061643-271.061643c24.984701-24.984701 65.36918-24.984701 90.35388 0s24.984701 65.36918 0 90.353881L421.959138 692.681137a63.835592 63.835592 0 0 1-90.353881 0zM150.833596 783.098917l90.353881 90.353881a63.835592 63.835592 0 0 0 90.35388 0l217.641668-217.641668c33.86673 71.184033 22.045325 158.662437-36.870006 217.641668l-86.392113 94.379549a191.677174 191.677174 0 0 1-271.125542 0l-98.405217-98.341317a191.783674 191.783674 0 0 1 0-271.125542l94.379549-86.392113c59.04313-58.915331 146.457634-70.736737 217.705567-36.870006L150.833596 692.681137a64.02729 64.02729 0 0 0 0 90.41778z" p-id="4251"></path></svg>