<?xml version="1.0" standalone="no"?><!DOCTYPE svg PUBLIC "-//W3C//DTD SVG 1.1//EN" "http://www.w3.org/Graphics/SVG/1.1/DTD/svg11.dtd"><svg t="1724074632561" class="icon" viewBox="0 0 2048 1024" version="1.1" xmlns="http://www.w3.org/2000/svg" p-id="4306" xmlns:xlink="http://www.w3.org/1999/xlink" width="400" height="200"><path d="M1713.152 636.416v-52.224c31.744 10.24 60.416 14.336 83.968 14.336 30.72 0 47.104-8.192 47.104-23.552 0-5.12-2.048-10.24-6.144-14.336-6.144-4.096-17.408-10.24-37.888-18.432-35.84-13.312-59.392-25.6-70.656-35.84-14.336-13.312-21.504-29.696-21.504-49.152 0-25.6 10.24-45.056 31.744-59.392 20.48-13.312 48.128-19.456 82.944-19.456 24.576 0 50.176 3.072 77.824 9.216v50.176c-27.648-10.24-51.2-15.36-73.728-15.36-28.672 0-43.008 8.192-43.008 23.552 0 5.12 3.072 10.24 9.216 14.336 4.096 3.072 17.408 9.216 41.984 18.432 26.624 11.264 41.984 18.432 48.128 22.528 26.624 15.36 38.912 35.84 38.912 61.44 0 28.672-13.312 50.176-39.936 65.536-21.504 11.264-48.128 17.408-80.896 17.408-27.648 1.024-56.32-3.072-88.064-9.216m-287.744 5.12V382.976h89.088l95.232 167.424V382.976H1664v257.536h-86.016l-97.28-170.496v170.496h-55.296v1.024z m-249.344 0V382.976h198.144V430.08h-121.344v57.344h106.496v43.008h-106.496v61.44H1377.28v49.152h-201.216v0.512z m-400.896 0V382.976H875.52l68.608 161.28 71.68-161.28h96.256v257.536h-75.776V464.896l-79.872 178.688h-48.128l-77.824-178.688v176.64h-55.296z m-247.808 0V382.976h198.144V430.08h-122.368v57.344h107.52v43.008h-107.52v61.44h125.44v49.152H527.36v0.512zM381.952 382.976H460.8v257.536H381.952V382.976z m-247.296 253.44v-52.224c31.744 10.24 60.416 14.336 83.968 14.336 31.744 0 48.128-8.192 48.128-23.552 0-5.12-3.072-10.24-7.168-14.336-5.12-4.096-17.408-10.24-37.888-18.432-35.84-13.312-59.392-25.6-70.656-35.84-14.336-13.312-21.504-29.696-21.504-49.152 0-25.6 11.264-45.056 31.744-59.392 20.48-13.312 48.128-19.456 82.944-19.456 24.576 0 51.2 3.072 77.824 9.216v50.176c-27.648-10.24-51.2-15.36-73.728-15.36-28.672 0-43.008 8.192-43.008 23.552 0 5.12 3.072 10.24 9.216 14.336 4.096 3.072 17.408 9.216 41.984 18.432 26.624 11.264 41.984 18.432 48.128 22.528 26.624 15.36 38.912 35.84 38.912 61.44 0 28.672-13.312 50.176-39.936 65.536-21.504 11.264-48.128 17.408-79.872 17.408-29.696 1.024-58.368-3.072-89.088-9.216" fill="#009C9A" p-id="4307"></path></svg>