<?xml version="1.0" standalone="no"?><!DOCTYPE svg PUBLIC "-//W3C//DTD SVG 1.1//EN" "http://www.w3.org/Graphics/SVG/1.1/DTD/svg11.dtd"><svg t="1724471395463" class="icon" viewBox="0 0 6516 1024" version="1.1" xmlns="http://www.w3.org/2000/svg" p-id="4322" xmlns:xlink="http://www.w3.org/1999/xlink" width="1272.65625" height="200"><path d="M20.014545 988.113455V793.134545c111.010909 34.909091 209.268364 52.363636 294.725819 52.363637 117.992727 0 176.965818-31.185455 176.965818-93.416727 0-23.272727-8.564364-42.728727-25.786182-58.554182-17.594182-16.756364-62.696727-39.982545-135.121455-69.725091-129.954909-53.434182-214.714182-98.955636-254.138181-136.610909C25.553455 437.480727 0 374.784 0 299.008 0 201.448727 37.236364 127.069091 111.616 75.962182 185.157818 25.320727 281.041455 0 399.220364 0 464.337455 0 558.545455 11.962182 681.844364 35.979636V223.418182c-91.694545-36.631273-176.872727-54.923636-255.534546-54.923637-110.778182 0-166.167273 30.440727-166.167273 91.322182 0 22.807273 11.170909 41.378909 33.512728 55.761455 18.571636 11.636364 69.771636 36.305455 153.460363 73.914182 120.552727 53.480727 200.750545 99.979636 240.733091 139.496727 47.429818 46.917818 71.214545 107.613091 71.214546 181.992727 0 106.914909-46.545455 188.509091-139.636364 244.689455C544.116364 1001.332364 446.370909 1024 326.376727 1024c-101.376 0-203.496727-11.915636-306.315636-35.886545zM914.990545 17.314909h275.87491v986.903273h-275.87491V17.314909zM1443.653818 1004.218182V17.314909h707.584v178.501818h-441.716363v222.859637h384.465454v162.816h-384.465454v234.216727h453.12v188.509091H1443.653818zM2342.632727 1004.218182V17.314909h357.748364l248.506182 630.597818L3203.630545 17.314909h339.781819v986.903273h-261.585455V305.477818l-289.698909 708.794182H2821.12L2537.053091 305.477818v698.740364H2342.632727zM3796.666182 1004.218182V17.314909H4504.203636v178.501818h-441.623272v222.859637h384.465454v162.816h-384.465454v234.216727h453.12v188.509091H3796.666182zM4696.994909 1004.218182V17.314909h319.767273l339.223273 660.666182V17.314909h194.327272v986.903273h-310.690909l-348.206545-669.509818v669.509818h-194.420364zM5746.269091 988.113455V793.134545c110.08 34.909091 208.290909 52.363636 294.772364 52.363637 117.992727 0 176.919273-31.185455 176.919272-93.416727 0-23.226182-8.378182-42.728727-24.994909-58.554182-17.687273-16.756364-62.976-39.982545-135.819636-69.725091-129.582545-52.968727-214.434909-98.490182-254.231273-136.610909-51.060364-49.291636-76.567273-112.221091-76.567273-188.881455 0-97.140364 37.143273-171.287273 111.616-222.394182C5911.412364 25.320727 6007.342545 0 6125.521455 0c66.466909 0 152.576 10.565818 258.187636 31.744l24.389818 4.189091v187.531636c-91.741091-36.631273-177.105455-54.923636-256.232727-54.923636-110.312727 0-165.376 30.440727-165.376 91.322182 0 22.807273 11.077818 41.378909 33.373091 55.761454 17.733818 11.170909 69.12 35.84 154.205091 73.914182 119.621818 53.480727 199.68 99.979636 239.988363 139.496727 47.522909 46.917818 71.214545 107.613091 71.214546 181.992728 0 106.914909-46.266182 188.509091-138.798546 244.689454-75.822545 45.614545-173.800727 68.282182-293.794909 68.282182-101.469091 0-203.682909-11.915636-306.408727-35.886545z" fill="#ffffff" p-id="4323"></path></svg>